<svg width="90" height="89" viewBox="0 0 90 89" fill="none" xmlns="http://www.w3.org/2000/svg">
<path d="M90 78.607C90 85.4129 83.0332 89.9953 76.7838 87.3L9.40429 58.2402C3.69674 55.7787 -1.00404e-05 50.1584 -9.76875e-06 43.9426V43.9426C-9.49675e-06 37.7201 3.70474 32.095 9.42147 29.6376L75.6567 1.16563C82.4431 -1.75157 90 3.22554 90 10.6123V10.6123C90 14.7386 87.5333 18.4653 83.735 20.0775L26.6267 44.3173C26.2834 44.463 26.2822 44.949 26.6247 45.0965L84.2759 69.9113C87.7494 71.4065 90 74.8254 90 78.607V78.607Z" fill="white"/>
</svg>
