<svg width="90" height="89" viewBox="0 0 90 89" fill="none" xmlns="http://www.w3.org/2000/svg">
<path d="M-3.65458e-06 10.393C-3.95207e-06 3.58712 6.96678 -0.99532 13.2162 1.69996L80.5957 30.7598C86.3033 33.2213 90 38.8416 90 45.0574V45.0574C90 51.2799 86.2953 56.9049 80.5785 59.3624L14.3433 87.8344C7.55692 90.7516 -3.5955e-07 85.7745 -6.82436e-07 78.3877V78.3877C-8.62803e-07 74.2614 2.46666 70.5347 6.26498 68.9225L63.3733 44.6827C63.7166 44.537 63.7178 44.051 63.3753 43.9035L5.72411 19.0887C2.25055 17.5935 -3.48928e-06 14.1746 -3.65458e-06 10.393V10.393Z" fill="white"/>
</svg>
