<svg width="35" height="145" viewBox="0 0 35 145" fill="none" xmlns="http://www.w3.org/2000/svg">
<path d="M34.451 134.47C34.451 137.914 33.5353 140.374 31.704 141.85C29.8453 143.326 27.1393 144.064 23.586 144.064L11.122 144.064C7.596 144.064 4.931 143.326 3.127 141.85C1.323 140.374 0.420997 137.914 0.420997 134.47C0.420997 131.054 1.323 128.607 3.127 127.131C4.931 125.655 7.596 124.917 11.122 124.917L23.586 124.917C27.112 124.917 29.8043 125.669 31.663 127.172C33.5217 128.648 34.451 131.081 34.451 134.47ZM29.982 134.47C29.982 133.131 29.5583 132.229 28.711 131.764C27.8637 131.3 26.6337 131.067 25.021 131.067L9.728 131.067C8.11533 131.067 6.899 131.3 6.079 131.764C5.259 132.202 4.849 133.104 4.849 134.47C4.849 135.837 5.27267 136.753 6.12 137.217C6.94 137.682 8.14267 137.914 9.728 137.914L25.021 137.914C26.6337 137.914 27.8637 137.682 28.711 137.217C29.5583 136.753 29.982 135.837 29.982 134.47ZM5.259 117.108L5.259 122.397L0.789996 122.397L0.789996 105.874L5.259 105.874L5.259 111.04L34 111.04L34 117.108L5.259 117.108ZM34.492 94.9385C34.492 100.733 31.3213 103.631 24.98 103.631L23.832 103.631L23.832 97.9725C24.3787 97.9725 24.7887 97.9589 25.062 97.9315C26.702 97.9042 27.891 97.6855 28.629 97.2755C29.367 96.8382 29.736 96.0455 29.736 94.8975C29.736 93.7222 29.326 92.9295 28.506 92.5195C27.6587 92.1095 26.333 91.9045 24.529 91.9045C22.725 91.9045 21.3583 92.2462 20.429 92.9295C19.4997 93.5855 18.9803 94.7882 18.871 96.5375L18.871 98.0955L14.853 98.0955C14.853 97.4122 14.8393 96.9202 14.812 96.6195C14.73 94.8429 14.2653 93.6129 13.418 92.9295C12.5433 92.2462 11.204 91.9045 9.4 91.9045C7.95133 91.9045 6.84433 92.1642 6.079 92.6835C5.31366 93.1755 4.931 93.9955 4.931 95.1435C4.931 96.2642 5.32733 97.0842 6.12 97.6035C6.88533 98.1229 7.97866 98.4099 9.4 98.4645L10.835 98.4645L10.835 104.123L9.277 104.123C6.46166 104.123 4.275 103.344 2.717 101.786C1.159 100.2 0.379996 98.0135 0.379996 95.2255C0.379996 92.4102 1.159 90.2235 2.717 88.6655C4.24766 87.0802 6.407 86.2875 9.195 86.2875C11.1083 86.2875 12.721 86.6975 14.033 87.5175C15.345 88.3102 16.1787 89.3625 16.534 90.6745C17.6 87.7499 20.2377 86.2875 24.447 86.2875C27.6177 86.2875 30.0913 86.9845 31.868 88.3785C33.6173 89.7452 34.492 91.9319 34.492 94.9385ZM0.789995 82.1094L0.789994 76.0824L14.73 76.0824L14.73 74.6064C14.73 71.135 15.468 68.5657 16.944 66.8984C18.42 65.231 20.8937 64.3974 24.365 64.3974C27.9183 64.3974 30.4193 65.272 31.868 67.0214C33.2893 68.7707 34 71.381 34 74.8524L34 82.1094L0.789995 82.1094ZM0.789994 61.2814L0.789993 55.2544L34 55.2544L34 61.2814L0.789994 61.2814ZM29.9 74.8114C29.9 73.0894 29.5037 71.8594 28.711 71.1214C27.9183 70.3834 26.4833 70.0144 24.406 70.0144C22.5473 70.0144 21.1807 70.3697 20.306 71.0804C19.404 71.791 18.953 73.062 18.953 74.8934L18.953 76.0824L29.9 76.0824L29.9 74.8114ZM0.789993 50.1601L0.789993 41.9601C0.789993 38.8168 1.43233 36.4115 2.71699 34.7441C4.00166 33.0768 6.20199 32.2431 9.31799 32.2431C11.3407 32.2431 12.926 32.6531 14.074 33.4731C15.1947 34.2931 15.878 35.4821 16.124 37.0401C16.862 33.2135 19.5953 31.3001 24.324 31.3001C27.522 31.3001 29.941 32.0791 31.581 33.6371C33.1937 35.1951 34 37.5048 34 40.5661L34 50.1601L0.789993 50.1601ZM14.361 42.0421C14.361 40.2928 13.9783 39.1038 13.213 38.4751C12.4203 37.8191 11.1493 37.4911 9.39999 37.4911C7.70533 37.4911 6.55733 37.9148 5.95599 38.7621C5.32733 39.5821 5.01299 40.9625 5.01299 42.9031L5.01299 44.1331L14.361 44.1331L14.361 42.0421ZM29.736 41.7961C29.736 40.0195 29.3123 38.7895 28.465 38.1061C27.6177 37.4228 26.2237 37.0811 24.283 37.0811C22.2877 37.0811 20.839 37.4638 19.937 38.2291C19.0077 38.9671 18.543 40.2245 18.543 42.0011L18.543 44.1331L29.736 44.1331L29.736 41.7961ZM0.789992 27.2559L0.789992 21.2289L14.73 21.2289L14.73 19.7529C14.73 16.2815 15.468 13.7122 16.944 12.0449C18.42 10.3775 20.8937 9.54386 24.365 9.54386C27.9183 9.54386 30.4193 10.4185 31.868 12.1679C33.2893 13.9172 34 16.5275 34 19.9989L34 27.2559L0.789992 27.2559ZM0.789991 6.42786L0.789991 0.400864L34 0.400863L34 6.42786L0.789991 6.42786ZM29.9 19.9579C29.9 18.2359 29.5037 17.0059 28.711 16.2679C27.9183 15.5299 26.4833 15.1609 24.406 15.1609C22.5473 15.1609 21.1807 15.5162 20.306 16.2269C19.404 16.9375 18.953 18.2085 18.953 20.0399L18.953 21.2289L29.9 21.2289L29.9 19.9579Z" fill="black"/>
</svg>
