<svg width="526" height="107" viewBox="0 0 526 107" fill="none" xmlns="http://www.w3.org/2000/svg">
<g clip-path="url(#clip0)">
<path d="M5.70261 91.6062C6.71395 91.6062 7.62961 91.8385 8.44962 92.3032C9.26962 92.7542 9.91195 93.3965 10.3766 94.2302C10.8413 95.0639 11.0736 96.0137 11.0736 97.0797C11.0736 98.1594 10.8413 99.116 10.3766 99.9497C9.91195 100.783 9.26962 101.433 8.44962 101.897C7.64328 102.348 6.72761 102.574 5.70261 102.574C4.82795 102.574 4.03528 102.396 3.32461 102.041C2.62761 101.672 2.05361 101.139 1.60261 100.442V106.448H0.147114V91.6882H1.54111V93.8202C1.97845 93.1095 2.55245 92.5629 3.26311 92.1802C3.98745 91.7975 4.80061 91.6062 5.70261 91.6062ZM5.60011 101.282C6.35178 101.282 7.03511 101.111 7.65011 100.77C8.26511 100.414 8.74345 99.9155 9.08511 99.2732C9.44045 98.6309 9.61811 97.8997 9.61811 97.0797C9.61811 96.2597 9.44045 95.5354 9.08511 94.9067C8.74345 94.2644 8.26511 93.7655 7.65011 93.4102C7.03511 93.0549 6.35178 92.8772 5.60011 92.8772C4.83478 92.8772 4.14461 93.0549 3.52961 93.4102C2.92828 93.7655 2.44995 94.2644 2.09461 94.9067C1.75295 95.5354 1.58211 96.2597 1.58211 97.0797C1.58211 97.8997 1.75295 98.6309 2.09461 99.2732C2.44995 99.9155 2.92828 100.414 3.52961 100.77C4.14461 101.111 4.83478 101.282 5.60011 101.282ZM23.6308 97.5307H14.6108C14.6928 98.6514 15.1233 99.5602 15.9023 100.257C16.6813 100.941 17.6653 101.282 18.8543 101.282C19.524 101.282 20.139 101.166 20.6993 100.934C21.2597 100.688 21.7448 100.332 22.1548 99.8677L22.9748 100.811C22.4965 101.385 21.8952 101.822 21.1708 102.123C20.4602 102.423 19.6743 102.574 18.8133 102.574C17.7063 102.574 16.7223 102.341 15.8613 101.877C15.014 101.398 14.3512 100.742 13.8728 99.9087C13.3945 99.075 13.1553 98.132 13.1553 97.0797C13.1553 96.0274 13.3808 95.0844 13.8318 94.2507C14.2965 93.417 14.9252 92.7679 15.7178 92.3032C16.5242 91.8385 17.4262 91.6062 18.4238 91.6062C19.4215 91.6062 20.3167 91.8385 21.1093 92.3032C21.902 92.7679 22.5238 93.417 22.9748 94.2507C23.4258 95.0707 23.6513 96.0137 23.6513 97.0797L23.6308 97.5307ZM18.4238 92.8567C17.3852 92.8567 16.5105 93.1915 15.7998 93.8612C15.1028 94.5172 14.7065 95.3782 14.6108 96.4442H22.2573C22.1617 95.3782 21.7585 94.5172 21.0478 93.8612C20.3508 93.1915 19.4762 92.8567 18.4238 92.8567ZM31.3832 102.574C30.3172 102.574 29.3605 102.341 28.5132 101.877C27.6795 101.412 27.0235 100.763 26.5452 99.9292C26.0669 99.0819 25.8277 98.132 25.8277 97.0797C25.8277 96.0274 26.0669 95.0844 26.5452 94.2507C27.0235 93.417 27.6795 92.7679 28.5132 92.3032C29.3605 91.8385 30.3172 91.6062 31.3832 91.6062C32.3125 91.6062 33.1394 91.7907 33.8637 92.1597C34.6017 92.515 35.1825 93.0412 35.6062 93.7382L34.5197 94.4762C34.1644 93.9432 33.7134 93.5469 33.1667 93.2872C32.62 93.0139 32.0255 92.8772 31.3832 92.8772C30.6042 92.8772 29.9004 93.0549 29.2717 93.4102C28.6567 93.7519 28.1715 94.2439 27.8162 94.8862C27.4745 95.5285 27.3037 96.2597 27.3037 97.0797C27.3037 97.9134 27.4745 98.6514 27.8162 99.2937C28.1715 99.9224 28.6567 100.414 29.2717 100.77C29.9004 101.111 30.6042 101.282 31.3832 101.282C32.0255 101.282 32.62 101.152 33.1667 100.893C33.7134 100.633 34.1644 100.237 34.5197 99.7037L35.6062 100.442C35.1825 101.139 34.6017 101.672 33.8637 102.041C33.1257 102.396 32.2989 102.574 31.3832 102.574ZM45.8093 92.9797H41.7298V102.471H40.2743V92.9797H36.1948V91.6882H45.8093V92.9797ZM51.8617 102.574C50.8231 102.574 49.8869 102.341 49.0532 101.877C48.2196 101.398 47.5636 100.742 47.0852 99.9087C46.6069 99.075 46.3677 98.132 46.3677 97.0797C46.3677 96.0274 46.6069 95.0844 47.0852 94.2507C47.5636 93.417 48.2196 92.7679 49.0532 92.3032C49.8869 91.8385 50.8231 91.6062 51.8617 91.6062C52.9004 91.6062 53.8366 91.8385 54.6702 92.3032C55.5039 92.7679 56.1531 93.417 56.6177 94.2507C57.0961 95.0844 57.3352 96.0274 57.3352 97.0797C57.3352 98.132 57.0961 99.075 56.6177 99.9087C56.1531 100.742 55.5039 101.398 54.6702 101.877C53.8366 102.341 52.9004 102.574 51.8617 102.574ZM51.8617 101.282C52.6271 101.282 53.3104 101.111 53.9117 100.77C54.5267 100.414 55.0051 99.9155 55.3467 99.2732C55.6884 98.6309 55.8592 97.8997 55.8592 97.0797C55.8592 96.2597 55.6884 95.5285 55.3467 94.8862C55.0051 94.2439 54.5267 93.7519 53.9117 93.4102C53.3104 93.0549 52.6271 92.8772 51.8617 92.8772C51.0964 92.8772 50.4062 93.0549 49.7912 93.4102C49.1899 93.7519 48.7116 94.2439 48.3562 94.8862C48.0146 95.5285 47.8437 96.2597 47.8437 97.0797C47.8437 97.8997 48.0146 98.6309 48.3562 99.2732C48.7116 99.9155 49.1899 100.414 49.7912 100.77C50.4062 101.111 51.0964 101.282 51.8617 101.282ZM66.0014 91.6062C67.0128 91.6062 67.9284 91.8385 68.7484 92.3032C69.5684 92.7542 70.2108 93.3965 70.6754 94.2302C71.1401 95.0639 71.3724 96.0137 71.3724 97.0797C71.3724 98.1594 71.1401 99.116 70.6754 99.9497C70.2108 100.783 69.5684 101.433 68.7484 101.897C67.9421 102.348 67.0264 102.574 66.0014 102.574C65.1268 102.574 64.3341 102.396 63.6234 102.041C62.9264 101.672 62.3524 101.139 61.9014 100.442V106.448H60.4459V91.6882H61.8399V93.8202C62.2773 93.1095 62.8513 92.5629 63.5619 92.1802C64.2863 91.7975 65.0994 91.6062 66.0014 91.6062ZM65.8989 101.282C66.6506 101.282 67.3339 101.111 67.9489 100.77C68.5639 100.414 69.0423 99.9155 69.3839 99.2732C69.7393 98.6309 69.9169 97.8997 69.9169 97.0797C69.9169 96.2597 69.7393 95.5354 69.3839 94.9067C69.0423 94.2644 68.5639 93.7655 67.9489 93.4102C67.3339 93.0549 66.6506 92.8772 65.8989 92.8772C65.1336 92.8772 64.4434 93.0549 63.8284 93.4102C63.2271 93.7655 62.7488 94.2644 62.3934 94.9067C62.0518 95.5354 61.8809 96.2597 61.8809 97.0797C61.8809 97.8997 62.0518 98.6309 62.3934 99.2732C62.7488 99.9155 63.2271 100.414 63.8284 100.77C64.4434 101.111 65.1336 101.282 65.8989 101.282ZM78.1501 91.6062C79.5578 91.6062 80.6374 91.9615 81.3891 92.6722C82.1408 93.3692 82.5166 94.4079 82.5166 95.7882V102.471H81.1226V100.79C80.7946 101.351 80.3094 101.788 79.6671 102.102C79.0384 102.417 78.2868 102.574 77.4121 102.574C76.2094 102.574 75.2528 102.287 74.5421 101.713C73.8314 101.139 73.4761 100.38 73.4761 99.4372C73.4761 98.5215 73.8041 97.7835 74.4601 97.2232C75.1298 96.6629 76.1889 96.3827 77.6376 96.3827H81.0611V95.7267C81.0611 94.7974 80.8014 94.0935 80.2821 93.6152C79.7628 93.1232 79.0043 92.8772 78.0066 92.8772C77.3233 92.8772 76.6673 92.9934 76.0386 93.2257C75.4099 93.4444 74.8701 93.7519 74.4191 94.1482L73.7631 93.0617C74.3098 92.597 74.9658 92.2417 75.7311 91.9957C76.4964 91.736 77.3028 91.6062 78.1501 91.6062ZM77.6376 101.426C78.4576 101.426 79.1614 101.241 79.7491 100.872C80.3368 100.49 80.7741 99.9429 81.0611 99.2322V97.4692H77.6786C75.8336 97.4692 74.9111 98.1115 74.9111 99.3962C74.9111 100.025 75.1503 100.524 75.6286 100.893C76.1069 101.248 76.7766 101.426 77.6376 101.426ZM86.3913 91.6882H87.8468V96.4647H94.6323V91.6882H96.0878V102.471H94.6323V97.7152H87.8468V102.471H86.3913V91.6882ZM116.106 101.2V105.075H114.733V102.471H105.077V105.075H103.704V101.2H104.319C105.043 101.159 105.535 100.626 105.795 99.6012C106.055 98.5762 106.232 97.1412 106.328 95.2962L106.471 91.6882H114.425V101.2H116.106ZM107.66 95.3782C107.592 96.9089 107.462 98.173 107.271 99.1707C107.08 100.155 106.738 100.831 106.246 101.2H112.97V92.9797H107.783L107.66 95.3782ZM127.758 91.6882V102.471H126.303V92.9797H121.137L120.993 95.6447C120.884 97.886 120.624 99.608 120.214 100.811C119.804 102.013 119.073 102.615 118.021 102.615C117.734 102.615 117.385 102.56 116.975 102.451L117.078 101.2C117.324 101.255 117.494 101.282 117.59 101.282C118.15 101.282 118.574 101.023 118.861 100.503C119.148 99.9839 119.339 99.3415 119.435 98.5762C119.531 97.8109 119.613 96.7995 119.681 95.5422L119.866 91.6882H127.758ZM140.178 91.6882V102.471H138.845V98.9042H135.463H135.053L132.552 102.471H130.973L133.659 98.6992C132.825 98.4669 132.183 98.0705 131.732 97.5102C131.281 96.9499 131.055 96.2392 131.055 95.3782C131.055 94.1755 131.465 93.2599 132.285 92.6312C133.105 92.0025 134.226 91.6882 135.647 91.6882H140.178ZM132.531 95.4192C132.531 97.0182 133.549 97.8177 135.586 97.8177H138.845V92.9797H135.688C133.583 92.9797 132.531 93.7929 132.531 95.4192ZM157.319 92.9797H151.149V102.471H149.693V91.6882H157.319V92.9797ZM164.978 91.6062C165.989 91.6062 166.905 91.8385 167.725 92.3032C168.545 92.7542 169.187 93.3965 169.652 94.2302C170.117 95.0639 170.349 96.0137 170.349 97.0797C170.349 98.1594 170.117 99.116 169.652 99.9497C169.187 100.783 168.545 101.433 167.725 101.897C166.919 102.348 166.003 102.574 164.978 102.574C164.103 102.574 163.311 102.396 162.6 102.041C161.903 101.672 161.329 101.139 160.878 100.442V106.448H159.423V91.6882H160.817V93.8202C161.254 93.1095 161.828 92.5629 162.539 92.1802C163.263 91.7975 164.076 91.6062 164.978 91.6062ZM164.876 101.282C165.627 101.282 166.311 101.111 166.926 100.77C167.541 100.414 168.019 99.9155 168.361 99.2732C168.716 98.6309 168.894 97.8997 168.894 97.0797C168.894 96.2597 168.716 95.5354 168.361 94.9067C168.019 94.2644 167.541 93.7655 166.926 93.4102C166.311 93.0549 165.627 92.8772 164.876 92.8772C164.11 92.8772 163.42 93.0549 162.805 93.4102C162.204 93.7655 161.725 94.2644 161.37 94.9067C161.028 95.5354 160.858 96.2597 160.858 97.0797C160.858 97.8997 161.028 98.6309 161.37 99.2732C161.725 99.9155 162.204 100.414 162.805 100.77C163.42 101.111 164.11 101.282 164.876 101.282ZM182.339 91.6882L176.948 103.763C176.511 104.774 176.005 105.492 175.431 105.915C174.857 106.339 174.167 106.551 173.36 106.551C172.841 106.551 172.356 106.469 171.905 106.305C171.454 106.141 171.064 105.895 170.736 105.567L171.413 104.48C171.96 105.027 172.616 105.3 173.381 105.3C173.873 105.3 174.29 105.164 174.631 104.89C174.987 104.617 175.315 104.152 175.615 103.496L176.087 102.451L171.269 91.6882H172.786L176.845 100.852L180.904 91.6882H182.339ZM188.817 102.574C187.751 102.574 186.794 102.341 185.947 101.877C185.113 101.412 184.457 100.763 183.979 99.9292C183.5 99.0819 183.261 98.132 183.261 97.0797C183.261 96.0274 183.5 95.0844 183.979 94.2507C184.457 93.417 185.113 92.7679 185.947 92.3032C186.794 91.8385 187.751 91.6062 188.817 91.6062C189.746 91.6062 190.573 91.7907 191.297 92.1597C192.035 92.515 192.616 93.0412 193.04 93.7382L191.953 94.4762C191.598 93.9432 191.147 93.5469 190.6 93.2872C190.054 93.0139 189.459 92.8772 188.817 92.8772C188.038 92.8772 187.334 93.0549 186.705 93.4102C186.09 93.7519 185.605 94.2439 185.25 94.8862C184.908 95.5285 184.737 96.2597 184.737 97.0797C184.737 97.9134 184.908 98.6514 185.25 99.2937C185.605 99.9224 186.09 100.414 186.705 100.77C187.334 101.111 188.038 101.282 188.817 101.282C189.459 101.282 190.054 101.152 190.6 100.893C191.147 100.633 191.598 100.237 191.953 99.7037L193.04 100.442C192.616 101.139 192.035 101.672 191.297 102.041C190.559 102.396 189.732 102.574 188.817 102.574ZM203.243 92.9797H199.163V102.471H197.708V92.9797H193.628V91.6882H203.243V92.9797ZM205.347 91.6882H206.803V96.4647H213.588V91.6882H215.044V102.471H213.588V97.7152H206.803V102.471H205.347V91.6882ZM223.711 95.5012C225.064 95.5149 226.096 95.8155 226.807 96.4032C227.517 96.9909 227.873 97.8382 227.873 98.9452C227.873 100.093 227.49 100.975 226.725 101.59C225.959 102.205 224.866 102.505 223.445 102.492L219.181 102.471V91.6882H220.636V95.4602L223.711 95.5012ZM229.677 91.6882H231.132V102.471H229.677V91.6882ZM223.363 101.385C224.36 101.398 225.112 101.2 225.618 100.79C226.137 100.367 226.397 99.7515 226.397 98.9452C226.397 98.1525 226.144 97.5649 225.638 97.1822C225.133 96.7995 224.374 96.6014 223.363 96.5877L220.636 96.5467V101.344L223.363 101.385ZM242.021 102.471L238.598 97.9612L235.154 102.471H233.514L237.778 96.9362L233.719 91.6882H235.359L238.598 95.9112L241.837 91.6882H243.436L239.377 96.9362L243.682 102.471H242.021ZM255.348 97.6742H252.888V102.471H251.432V91.6882H252.888V96.4237H255.368L259.161 91.6882H260.739L256.496 96.9157L261.047 102.471H259.325L255.348 97.6742ZM272.159 91.6882V102.471H270.703V92.9797H265.537L265.394 95.6447C265.285 97.886 265.025 99.608 264.615 100.811C264.205 102.013 263.474 102.615 262.421 102.615C262.134 102.615 261.786 102.56 261.376 102.451L261.478 101.2C261.724 101.255 261.895 101.282 261.991 101.282C262.551 101.282 262.975 101.023 263.262 100.503C263.549 99.9839 263.74 99.3415 263.836 98.5762C263.932 97.8109 264.014 96.7995 264.082 95.5422L264.266 91.6882H272.159ZM280.745 102.574C279.706 102.574 278.77 102.341 277.937 101.877C277.103 101.398 276.447 100.742 275.969 99.9087C275.49 99.075 275.251 98.132 275.251 97.0797C275.251 96.0274 275.49 95.0844 275.969 94.2507C276.447 93.417 277.103 92.7679 277.937 92.3032C278.77 91.8385 279.706 91.6062 280.745 91.6062C281.784 91.6062 282.72 91.8385 283.554 92.3032C284.387 92.7679 285.036 93.417 285.501 94.2507C285.979 95.0844 286.219 96.0274 286.219 97.0797C286.219 98.132 285.979 99.075 285.501 99.9087C285.036 100.742 284.387 101.398 283.554 101.877C282.72 102.341 281.784 102.574 280.745 102.574ZM280.745 101.282C281.51 101.282 282.194 101.111 282.795 100.77C283.41 100.414 283.888 99.9155 284.23 99.2732C284.572 98.6309 284.743 97.8997 284.743 97.0797C284.743 96.2597 284.572 95.5285 284.23 94.8862C283.888 94.2439 283.41 93.7519 282.795 93.4102C282.194 93.0549 281.51 92.8772 280.745 92.8772C279.98 92.8772 279.29 93.0549 278.675 93.4102C278.073 93.7519 277.595 94.2439 277.24 94.8862C276.898 95.5285 276.727 96.2597 276.727 97.0797C276.727 97.8997 276.898 98.6309 277.24 99.2732C277.595 99.9155 278.073 100.414 278.675 100.77C279.29 101.111 279.98 101.282 280.745 101.282ZM298.192 91.6882L292.801 103.763C292.364 104.774 291.858 105.492 291.284 105.915C290.71 106.339 290.02 106.551 289.213 106.551C288.694 106.551 288.209 106.469 287.758 106.305C287.307 106.141 286.917 105.895 286.589 105.567L287.266 104.48C287.813 105.027 288.469 105.3 289.234 105.3C289.726 105.3 290.143 105.164 290.484 104.89C290.84 104.617 291.168 104.152 291.468 103.496L291.94 102.451L287.122 91.6882H288.639L292.698 100.852L296.757 91.6882H298.192ZM300.46 91.6882H301.916V96.4647H308.701V91.6882H310.157V102.471H308.701V97.7152H301.916V102.471H300.46V91.6882ZM318.742 102.574C317.703 102.574 316.767 102.341 315.934 101.877C315.1 101.398 314.444 100.742 313.966 99.9087C313.487 99.075 313.248 98.132 313.248 97.0797C313.248 96.0274 313.487 95.0844 313.966 94.2507C314.444 93.417 315.1 92.7679 315.934 92.3032C316.767 91.8385 317.703 91.6062 318.742 91.6062C319.781 91.6062 320.717 91.8385 321.551 92.3032C322.384 92.7679 323.033 93.417 323.498 94.2507C323.976 95.0844 324.216 96.0274 324.216 97.0797C324.216 98.132 323.976 99.075 323.498 99.9087C323.033 100.742 322.384 101.398 321.551 101.877C320.717 102.341 319.781 102.574 318.742 102.574ZM318.742 101.282C319.507 101.282 320.191 101.111 320.792 100.77C321.407 100.414 321.885 99.9155 322.227 99.2732C322.569 98.6309 322.74 97.8997 322.74 97.0797C322.74 96.2597 322.569 95.5285 322.227 94.8862C321.885 94.2439 321.407 93.7519 320.792 93.4102C320.191 93.0549 319.507 92.8772 318.742 92.8772C317.977 92.8772 317.287 93.0549 316.672 93.4102C316.07 93.7519 315.592 94.2439 315.237 94.8862C314.895 95.5285 314.724 96.2597 314.724 97.0797C314.724 97.8997 314.895 98.6309 315.237 99.2732C315.592 99.9155 316.07 100.414 316.672 100.77C317.287 101.111 317.977 101.282 318.742 101.282ZM334.194 96.8952C335.656 97.2369 336.387 98.1184 336.387 99.5397C336.387 100.483 336.039 101.207 335.342 101.713C334.645 102.218 333.606 102.471 332.226 102.471H327.326V91.6882H332.082C333.312 91.6882 334.276 91.9274 334.973 92.4057C335.67 92.884 336.018 93.5674 336.018 94.4557C336.018 95.0434 335.854 95.549 335.526 95.9727C335.212 96.3827 334.768 96.6902 334.194 96.8952ZM328.741 96.4852H331.98C332.813 96.4852 333.449 96.328 333.886 96.0137C334.337 95.6994 334.563 95.2415 334.563 94.6402C334.563 94.0389 334.337 93.5879 333.886 93.2872C333.449 92.9865 332.813 92.8362 331.98 92.8362H328.741V96.4852ZM332.164 101.323C333.094 101.323 333.791 101.173 334.255 100.872C334.72 100.572 334.952 100.1 334.952 99.4577C334.952 98.8154 334.74 98.3439 334.317 98.0432C333.893 97.7289 333.223 97.5717 332.308 97.5717H328.741V101.323H332.164Z" fill="black"/>
<path d="M233.609 53.334C233.609 53.4063 233.609 53.4784 233.609 53.5508C233.538 63.0733 222.704 68.5204 214.761 63.2033C202.67 55.1091 185.765 50.0821 167.055 50.0821C148.339 50.0821 131.433 55.1091 119.341 63.2033C111.397 68.5204 100.564 63.0751 100.493 53.5508C100.493 53.4788 100.493 53.4065 100.493 53.334C100.49 29.4028 130.29 10 167.053 10C203.809 10 233.609 29.4028 233.609 53.334Z" fill="#A22A2F"/>
<path d="M101.753 56.9141L105.711 61.9678L99.4089 76.8962L86.599 60.149L101.753 56.9141Z" fill="#A22A2F"/>
<path d="M232.366 56.9141L228.408 61.9678L234.71 76.8962L247.521 60.149L232.366 56.9141Z" fill="#A22A2F"/>
</g>
<defs>
<clipPath id="clip0">
<rect width="526" height="107" fill="white"/>
</clipPath>
</defs>
</svg>
