<svg width="340" height="40" viewBox="0 0 340 40" fill="none" xmlns="http://www.w3.org/2000/svg">
<path d="M0.583008 0.789062H6.61001V14.7291H7.84001L13.211 0.789062H19.238L12.924 16.4921L19.73 33.9991H13.621L7.84001 18.7061H6.61001V33.9991H0.583008V0.789062Z" fill="black"/>
<path d="M22.6826 0.789062H32.4407C38.0987 0.789062 40.9277 3.9324 40.9277 10.2191C40.9277 16.2324 37.962 19.2391 32.0306 19.2391H28.7096V33.9991H22.6826V0.789062ZM31.0466 14.9751C32.6867 14.9751 33.7936 14.6334 34.3676 13.9501C34.9416 13.2394 35.2286 11.9821 35.2286 10.1781C35.2286 8.86606 35.133 7.8684 34.9417 7.18506C34.7503 6.4744 34.354 5.9414 33.7527 5.58607C33.1787 5.23073 32.2766 5.05306 31.0466 5.05306H28.7096V14.9751H31.0466Z" fill="black"/>
<path d="M43.9757 35.5981C44.3311 35.6254 44.8231 35.6391 45.4517 35.6391C47.0371 35.6391 48.1714 35.3794 48.8547 34.8601C49.5381 34.3681 49.8797 33.5344 49.8797 32.3591C49.8797 31.8671 49.8114 31.2384 49.6747 30.4731L42.6637 0.789062H48.2807L51.1097 14.6881L52.6267 24.3641L53.8567 14.6881L56.3167 0.789062H62.0157L55.5787 31.0881C55.0594 33.5481 54.5127 35.3521 53.9387 36.5001C53.3921 37.6754 52.5037 38.5227 51.2737 39.0421C50.0437 39.5887 48.1987 39.8621 45.7387 39.8621C44.9734 39.8621 44.3857 39.8484 43.9757 39.8211V35.5981Z" fill="black"/>
<path d="M77.6329 19.5261C75.9109 19.8267 74.4349 19.9771 73.2049 19.9771C70.5262 19.9771 68.3806 19.3074 66.7679 17.9681C65.1552 16.6014 64.3489 14.6471 64.3489 12.1051V0.789062H70.4169V12.1051C70.4169 13.4991 70.7176 14.5241 71.3189 15.1801C71.9202 15.8361 73.0409 16.1641 74.6809 16.1641C75.6102 16.1641 76.5942 16.0684 77.6329 15.8771V0.789062H83.6599V33.9991H77.6329V19.5261Z" fill="black"/>
<path d="M88.8291 0.789062H93.7901V21.7401L102.892 0.789062H106.951V33.9991H101.908V12.6791L92.8061 33.9991H88.8291V0.789062Z" fill="black"/>
<path d="M112.132 0.789062H118.159V14.6471H124.924V0.789062H130.992V33.9991H124.924V18.9931H118.159V33.9991H112.132V0.789062Z" fill="black"/>
<path d="M141.034 0.789062H147.512L154.154 33.9991H148.537L147.225 26.3321H141.444L140.091 33.9991H134.392L141.034 0.789062ZM146.569 22.4781L144.314 8.53806L142.059 22.4781H146.569Z" fill="black"/>
<path d="M172.425 0.789062H178.903L185.545 33.9991H179.928L178.616 26.3321H172.835L171.482 33.9991H165.783L172.425 0.789062ZM177.96 22.4781L175.705 8.53806L173.45 22.4781H177.96Z" fill="black"/>
<path d="M188.885 0.789062H198.643C204.301 0.789062 207.13 3.9324 207.13 10.2191C207.13 16.2324 204.164 19.2391 198.233 19.2391H194.912V33.9991H188.885V0.789062ZM197.249 14.9751C198.889 14.9751 199.996 14.6334 200.57 13.9501C201.144 13.2394 201.431 11.9821 201.431 10.1781C201.431 8.86606 201.335 7.8684 201.144 7.18506C200.952 6.4744 200.556 5.9414 199.955 5.58607C199.381 5.23073 198.479 5.05306 197.249 5.05306H194.912V14.9751H197.249Z" fill="black"/>
<path d="M206.528 29.6531C207.922 29.6804 208.92 29.4617 209.521 28.9971C210.15 28.5051 210.628 27.4117 210.956 25.7171C211.284 24.0224 211.599 21.1114 211.899 16.9841L212.965 0.789062H229.119V33.9991H223.092V5.34006H218.295L217.598 17.7221C217.325 22.1501 216.956 25.4437 216.491 27.6031C216.027 29.7351 215.152 31.3477 213.867 32.4411C212.61 33.5071 210.656 34.0401 208.004 34.0401C207.376 34.0401 206.884 34.0264 206.528 33.9991V29.6531Z" fill="black"/>
<path d="M234.249 0.789062H248.189V5.05306H240.276V14.6061H246.508V18.8291H240.276V29.8581H248.271V33.9991H234.249V0.789062Z" fill="black"/>
<path d="M251.868 0.789062H257.895V14.7291H259.125L264.496 0.789062H270.523L264.209 16.4921L271.015 33.9991H264.906L259.125 18.7061H257.895V33.9991H251.868V0.789062Z" fill="black"/>
<path d="M274.05 0.789062H279.011V21.7401L288.113 0.789062H292.172V33.9991H287.129V12.6791L278.027 33.9991H274.05V0.789062Z" fill="black"/>
<path d="M297.353 0.789062H303.38V14.6471H310.145V0.789062H316.213V33.9991H310.145V18.9931H303.38V33.9991H297.353V0.789062Z" fill="black"/>
<path d="M326.255 0.789062H332.733L339.375 33.9991H333.758L332.446 26.3321H326.665L325.312 33.9991H319.613L326.255 0.789062ZM331.79 22.4781L329.535 8.53806L327.28 22.4781H331.79Z" fill="black"/>
</svg>
